<svg width="92" height="89" viewBox="0 0 92 89" fill="none" xmlns="http://www.w3.org/2000/svg">
<path fill-rule="evenodd" clip-rule="evenodd" d="M45.494 0.000271772C34.6919 0.0017255 24.2427 3.84626 16.0155 10.8462C7.78831 17.846 2.31989 27.5447 0.588419 38.2071C-1.14305 48.8695 0.975392 59.8001 6.5648 69.0437C12.1542 78.2872 20.8499 85.2407 31.0965 88.6603C33.3715 89.0828 34.3465 87.6853 34.3465 86.4828V78.7478C21.704 81.4778 19.039 72.6378 19.039 72.6378C18.1526 69.8506 16.2808 67.4819 13.774 65.9753C9.64648 63.1803 14.099 63.2128 14.099 63.2128C15.5407 63.4164 16.9168 63.9469 18.1222 64.7636C19.3276 65.5804 20.3304 66.6618 21.054 67.9253C22.3128 70.1832 24.4169 71.8487 26.9034 72.5556C29.39 73.2626 32.0555 72.9531 34.314 71.6953C34.4975 69.3893 35.5141 67.229 37.174 65.6178C27.099 64.4478 16.4715 60.5478 16.4715 43.1278C16.3978 38.6034 18.0745 34.2255 21.1515 30.9078C19.7587 26.9889 19.9216 22.6852 21.6065 18.8828C21.6065 18.8828 25.409 17.6478 34.119 23.5303C41.5663 21.4989 49.4217 21.4989 56.869 23.5303C65.5465 17.6478 69.349 18.8828 69.349 18.8828C71.0339 22.6852 71.1967 26.9889 69.804 30.9078C72.881 34.2255 74.5577 38.6034 74.484 43.1278C74.484 60.6128 63.8565 64.4478 53.7165 65.5853C54.8027 66.6862 55.6403 68.0072 56.1729 69.4593C56.7055 70.9113 56.9207 72.4606 56.804 74.0028V86.4828C56.804 87.9778 57.6165 89.1153 60.054 88.6603C70.314 85.2365 79.0187 78.2696 84.6073 69.009C90.1958 59.7484 92.3026 48.7999 90.5498 38.1266C88.797 27.4534 83.2993 17.7537 75.0425 10.7668C66.7858 3.77989 56.3101 -0.037095 45.494 0.000271772Z" fill="#FB773C"/>
</svg>
