<svg width="80" height="80" viewBox="0 0 80 80" fill="none" xmlns="http://www.w3.org/2000/svg">
<path d="M69.79 25.1C64.09 13.73 52.6767 6.66663 40 6.66663C21.62 6.66663 6.66666 21.62 6.66666 40C6.66666 58.38 21.62 73.3333 40 73.3333C52.6767 73.3333 64.09 66.27 69.79 54.9C70.1719 54.1382 70.2476 53.2591 70.0015 52.4432C69.7554 51.6274 69.2062 50.9368 68.4667 50.5133L50.0567 40L68.4633 29.49C70 28.61 70.5833 26.6833 69.79 25.1ZM41.68 37.1066C41.1693 37.3976 40.7447 37.8185 40.4494 38.3267C40.1541 38.8349 39.9985 39.4122 39.9985 40C39.9985 40.5877 40.1541 41.165 40.4494 41.6732C40.7447 42.1814 41.1693 42.6023 41.68 42.8933L62.2567 54.6433C59.8431 58.3438 56.5427 61.3822 52.6556 63.4821C48.7685 65.582 44.418 66.6767 40 66.6666C25.2967 66.6666 13.3333 54.7033 13.3333 40C13.3333 25.2966 25.2967 13.3333 40 13.3333C44.4177 13.3229 48.768 14.4171 52.6551 16.5163C56.5422 18.6156 59.8428 21.6534 62.2567 25.3533L41.68 37.1066Z" fill="#FB773C"/>
<path d="M38.3333 30C41.0948 30 43.3333 27.7614 43.3333 25C43.3333 22.2386 41.0948 20 38.3333 20C35.5719 20 33.3333 22.2386 33.3333 25C33.3333 27.7614 35.5719 30 38.3333 30Z" fill="#FB773C"/>
</svg>
