<svg width="80" height="80" viewBox="0 0 80 80" fill="none" xmlns="http://www.w3.org/2000/svg">
<path d="M38.6233 23.33H25.6733C24.3048 23.3296 22.9694 23.7503 21.8482 24.5351C20.7271 25.3199 19.8747 26.4307 19.4067 27.7167L6.87333 62.19C6.43 63.4067 6.73333 64.77 7.64667 65.6867L8.62333 66.6633L30.03 45.2567C30.0267 45.17 30.0033 45.0833 30.0033 44.9967C30.0033 44.0078 30.2966 43.0411 30.846 42.2188C31.3954 41.3966 32.1763 40.7557 33.0899 40.3773C34.0035 39.9988 35.0089 39.8998 35.9788 40.0927C36.9487 40.2857 37.8396 40.7619 38.5389 41.4611C39.2381 42.1604 39.7143 43.0513 39.9073 44.0212C40.1002 44.9911 40.0012 45.9965 39.6227 46.9101C39.2443 47.8237 38.6034 48.6046 37.7812 49.154C36.9589 49.7034 35.9922 49.9967 35.0033 49.9967C34.9167 49.9967 34.83 49.9733 34.7433 49.97L13.3367 71.3767L14.3133 72.3533C14.7615 72.8026 15.329 73.1142 15.9486 73.2513C16.5682 73.3883 17.2142 73.3451 17.81 73.1267L52.2833 60.59C53.5693 60.122 54.6801 59.2695 55.4649 58.1484C56.2497 57.0273 56.6704 55.6918 56.67 54.3233V41.3733L63.3333 34.7133L45.2867 16.6667L38.6233 23.33ZM66.4667 30.2033L49.8 13.5367L56.8667 6.46667L73.5333 23.1333L66.4667 30.2033Z" fill="#FB773C"/>
</svg>
